<?xml version="1.0" encoding="utf-8" ?>
<svg baseProfile="full" height="100mm" version="1.1" viewBox="0 0 100 100" width="100mm" xmlns="http://www.w3.org/2000/svg" xmlns:ev="http://www.w3.org/2001/xml-events" xmlns:xlink="http://www.w3.org/1999/xlink"><defs /><circle cx="82.85997263425097" cy="83.76722735015423" fill="black" r="1.0" /><circle cx="40.06226498088477" cy="90.7692184369546" fill="black" r="1.0" /><circle cx="87.53792260465167" cy="9.959409758673905" fill="black" r="1.0" /><circle cx="71.66523842216283" cy="56.62550612734121" fill="black" r="1.0" /><circle cx="7.498279603863017" cy="16.58139289505946" fill="black" r="1.0" /><circle cx="100.0" cy="71.96141467606046" fill="black" r="1.0" /><circle cx="79.20707818352074" cy="27.38261875088528" fill="black" r="1.0" /><circle cx="76.54405466606767" cy="66.2047860004533" fill="black" r="1.0" /><circle cx="10.63883349642259" cy="71.891462094704" fill="black" r="1.0" /><circle cx="45.18538452081179" cy="67.30514174011165" fill="black" r="1.0" /><circle cx="37.625457286639374" cy="12.77686575032029" fill="black" r="1.0" /><circle cx="89.53049989455012" cy="86.74600581808286" fill="black" r="1.0" /><circle cx="62.57043774662874" cy="23.74500797757566" fill="black" r="1.0" /><circle cx="86.8951764743312" cy="0.0" fill="black" r="1.0" /><circle cx="44.96703348015781" cy="53.83371474658044" fill="black" r="1.0" /><circle cx="22.52377806969205" cy="36.312838963040285" fill="black" r="1.0" /><circle cx="54.56363816801321" cy="83.55440719391527" fill="black" r="1.0" /><circle cx="0.0" cy="79.04567845795776" fill="black" r="1.0" /><circle cx="85.24995445263029" cy="36.13384399781045" fill="black" r="1.0" /><circle cx="61.80897072776464" cy="100.0" fill="black" r="1.0" /><circle cx="74.55270753826566" cy="34.31450080439182" fill="black" r="1.0" /><circle cx="34.57690329017183" cy="48.627499638167116" fill="black" r="1.0" /><circle cx="100.0" cy="29.484265234986083" fill="black" r="1.0" /><circle cx="91.47578608183576" cy="100.0" fill="black" r="1.0" /><circle cx="77.68064924665963" cy="15.762572338752651" fill="black" r="1.0" /><circle cx="24.85076571161783" cy="2.032995446787176" fill="black" r="1.0" /><circle cx="50.24828246773061" cy="48.28884727611878" fill="black" r="1.0" /><circle cx="4.380376578722878" cy="99.2375564055837" fill="black" r="1.0" /><circle cx="14.307971518107866" cy="90.8746282763717" fill="black" r="1.0" /><circle cx="65.3282973077909" cy="75.3739358437836" fill="black" r="1.0" /><circle cx="73.40536777886163" cy="93.57374034938809" fill="black" r="1.0" /><circle cx="96.750973243421" cy="89.34466396978632" fill="black" r="1.0" /><circle cx="28.224655806149077" cy="54.55096081404919" fill="black" r="1.0" /><circle cx="39.03896071498742" cy="31.973610311882588" fill="black" r="1.0" /><circle cx="48.667315926614975" cy="73.59990244219337" fill="black" r="1.0" /><circle cx="16.8811883189594" cy="66.59869328302459" fill="black" r="1.0" /><circle cx="15.37359831288109" cy="38.277283230972" fill="black" r="1.0" /><circle cx="47.049697224239665" cy="7.030743192758917" fill="black" r="1.0" /><circle cx="27.801893789203525" cy="73.10408124815125" fill="black" r="1.0" /><circle cx="65.89054206479913" cy="31.67863711815255" fill="black" r="1.0" /><circle cx="48.42379896589382" cy="100.0" fill="black" r="1.0" /><circle cx="87.12090822204736" cy="25.373393396229147" fill="black" r="1.0" /><circle cx="70.47257628641151" cy="9.262424370865713" fill="black" r="1.0" /><circle cx="33.55898685135533" cy="81.78431286243266" fill="black" r="1.0" /><circle cx="82.32044221972627" cy="14.010275433418332" fill="black" r="1.0" /><circle cx="81.52499742174057" cy="20.223930501821673" fill="black" r="1.0" /><circle cx="39.30115248590393" cy="63.06563472315148" fill="black" r="1.0" /><circle cx="31.115631158059593" cy="87.99254669995769" fill="black" r="1.0" /><circle cx="69.52734116398896" cy="21.623886460694997" fill="black" r="1.0" /><circle cx="13.382928791644888" cy="27.37930149995858" fill="black" r="1.0" /><circle cx="19.3851793740774" cy="75.79703517088376" fill="black" r="1.0" /><circle cx="0.7362269751005512" cy="97.18264260609673" fill="black" r="1.0" /><circle cx="85.12966195080455" cy="46.541236605126976" fill="black" r="1.0" /><circle cx="67.72824744812405" cy="15.139660422098686" fill="black" r="1.0" /><circle cx="69.82200729329809" cy="0.0" fill="black" r="1.0" /><circle cx="76.58577203508581" cy="20.932041788449816" fill="black" r="1.0" /><circle cx="46.109636626929564" cy="12.833641879362304" fill="black" r="1.0" /><circle cx="55.15573637603837" cy="68.97598659835812" fill="black" r="1.0" /><circle cx="15.854031544257525" cy="16.30955529493974" fill="black" r="1.0" /><circle cx="6.894613880422355" cy="52.13050088439938" fill="black" r="1.0" /><circle cx="65.00885320037821" cy="64.85210345474451" fill="black" r="1.0" /><circle cx="50.03015889587667" cy="58.396436528149714" fill="black" r="1.0" /><circle cx="55.094578452754426" cy="20.63127454239207" fill="black" r="1.0" /><circle cx="77.62008953691789" cy="77.04465347336013" fill="black" r="1.0" /><circle cx="61.194928360674226" cy="73.85803950640499" fill="black" r="1.0" /><circle cx="56.21482555985775" cy="76.59459765417694" fill="black" r="1.0" /><circle cx="52.86290876388182" cy="14.871315494013347" fill="black" r="1.0" /><circle cx="29.93741217565307" cy="12.655811523912625" fill="black" r="1.0" /><circle cx="5.104755179480855" cy="92.72549044852062" fill="black" r="1.0" /><circle cx="45.53826985016219" cy="39.93262232381125" fill="black" r="1.0" /><circle cx="23.405198344443203" cy="23.44443462862636" fill="black" r="1.0" /><circle cx="41.66332478727272" cy="47.648425427201765" fill="black" r="1.0" /><circle cx="84.9223250323475" cy="68.91192104926513" fill="black" r="1.0" /><circle cx="22.085752904401126" cy="100.0" fill="black" r="1.0" /><circle cx="0.0" cy="24.046217819835427" fill="black" r="1.0" /><circle cx="33.25214229447003" cy="100.0" fill="black" r="1.0" /><circle cx="35.13644935312709" cy="0.0" fill="black" r="1.0" /><circle cx="64.18740471346989" cy="52.15756746232167" fill="black" r="1.0" /><circle cx="54.887394526660024" cy="62.99146135265712" fill="black" r="1.0" /><circle cx="78.11055633942718" cy="8.046030577678113" fill="black" r="1.0" /><circle cx="63.768399996273125" cy="9.540520909583904" fill="black" r="1.0" /><circle cx="36.87440207677158" cy="41.247676048231845" fill="black" r="1.0" /><circle cx="80.88764427514268" cy="100.0" fill="black" r="1.0" /><circle cx="16.16186284626394" cy="58.108936919508814" fill="black" r="1.0" /><circle cx="0.0" cy="85.55563388463167" fill="black" r="1.0" /><circle cx="6.91388852490708" cy="79.53555217356654" fill="black" r="1.0" /><circle cx="72.076045260385" cy="43.95179956683451" fill="black" r="1.0" /><circle cx="45.932077784603095" cy="78.58681985753587" fill="black" r="1.0" /><circle cx="16.683995050964977" cy="0.0" fill="black" r="1.0" /><circle cx="51.69868259642259" cy="8.32188869675239" fill="black" r="1.0" /><circle cx="14.55399359003948" cy="81.97549590685826" fill="black" r="1.0" /><circle cx="68.27670216675035" cy="80.77368676642682" fill="black" r="1.0" /><circle cx="46.204595460104876" cy="24.984801910700824" fill="black" r="1.0" /><circle cx="37.52849568927383" cy="55.88955925101543" fill="black" r="1.0" /><circle cx="25.897242181188982" cy="62.933164567723665" fill="black" r="1.0" /><circle cx="63.840896245007855" cy="89.77750537041909" fill="black" r="1.0" /><circle cx="34.54318778429204" cy="65.05296283413013" fill="black" r="1.0" /><circle cx="9.403877876806664" cy="43.297642172043474" fill="black" r="1.0" /><circle cx="6.847255988399946" cy="34.48604865948509" fill="black" r="1.0" /><circle cx="100.0" cy="44.79109369278308" fill="black" r="1.0" /><circle cx="92.66993015879973" cy="74.53979245380073" fill="black" r="1.0" /><circle cx="73.15513172976698" cy="85.4638659535803" fill="black" r="1.0" /><circle cx="28.06828518210989" cy="44.64952762151631" fill="black" r="1.0" /><circle cx="100.0" cy="19.023529992326733" fill="black" r="1.0" /><circle cx="74.69104033775318" cy="23.902291283456808" fill="black" r="1.0" /><circle cx="71.84842234129744" cy="72.94958700200077" fill="black" r="1.0" /><circle cx="42.49873752969146" cy="83.73348477904078" fill="black" r="1.0" /><circle cx="23.297354338202712" cy="12.57033372673173" fill="black" r="1.0" /><circle cx="10.111108541820533" cy="7.198753162186434" fill="black" r="1.0" /><circle cx="92.5305544542473" cy="58.761074457712105" fill="black" r="1.0" /><circle cx="45.288926864024965" cy="18.149070442659944" fill="black" r="1.0" /><circle cx="23.42352265871742" cy="83.32160203578965" fill="black" r="1.0" /><circle cx="29.507097923990482" cy="29.998330321491203" fill="black" r="1.0" /><circle cx="59.11751196393196" cy="14.702697807932102" fill="black" r="1.0" /><circle cx="16.398135706889303" cy="95.52630508683325" fill="black" r="1.0" /><circle cx="86.72564965461397" cy="17.80214685060836" fill="black" r="1.0" /><circle cx="72.18848592549192" cy="27.5499467528901" fill="black" r="1.0" /><circle cx="73.18108780871539" cy="15.528020122055624" fill="black" r="1.0" /><circle cx="41.52870932789646" cy="7.148637116941792" fill="black" r="1.0" /><circle cx="56.602190681999424" cy="0.0" fill="black" r="1.0" /><circle cx="57.71465928809952" cy="4.390947760242096" fill="black" r="1.0" /><circle cx="63.113820967247555" cy="17.654874399264376" fill="black" r="1.0" /><circle cx="0.0" cy="0.0" fill="black" r="1.0" /><circle cx="43.69725597350321" cy="60.32827552470202" fill="black" r="1.0" /><circle cx="0.0" cy="70.83774207418055" fill="black" r="1.0" /><circle cx="57.74213175471275" cy="41.06933392649162" fill="black" r="1.0" /><circle cx="31.46426888819578" cy="36.91482638406699" fill="black" r="1.0" /><circle cx="18.35557766872777" cy="47.68400640558916" fill="black" r="1.0" /><circle cx="8.562161955105402" cy="87.22682858997786" fill="black" r="1.0" /><circle cx="60.057692596282" cy="83.3540040488631" fill="black" r="1.0" /><circle cx="17.65477366333021" cy="8.232403411012646" fill="black" r="1.0" /><circle cx="93.166262582856" cy="17.86140687562431" fill="black" r="1.0" /><circle cx="56.34039870192291" cy="29.028547216991964" fill="black" r="1.0" /><circle cx="35.19507201946729" cy="22.225804283928504" fill="black" r="1.0" /><circle cx="57.60601818274961" cy="54.42247565245301" fill="black" r="1.0" /><circle cx="0.0" cy="42.64087781730192" fill="black" r="1.0" /><circle cx="95.85592132414453" cy="4.925411992759399" fill="black" r="1.0" /><circle cx="48.95726641963654" cy="33.0679524549944" fill="black" r="1.0" /><circle cx="80.23230508414808" cy="56.05759493420059" fill="black" r="1.0" /><circle cx="0.0" cy="8.566925677870188" fill="black" r="1.0" /><circle cx="48.90135567589679" cy="83.73925295218044" fill="black" r="1.0" /><circle cx="47.54567688793543" cy="0.0" fill="black" r="1.0" /><circle cx="93.62080725393974" cy="95.06533288529573" fill="black" r="1.0" /><circle cx="57.140391578678454" cy="9.995250186082698" fill="black" r="1.0" /><circle cx="51.51767739424573" cy="91.27975951244133" fill="black" r="1.0" /><circle cx="23.909991694080627" cy="91.18023775795793" fill="black" r="1.0" /><circle cx="48.62524850231047" cy="100.0" fill="black" r="1.0" /><circle cx="51.58791308315697" cy="78.90722877564747" fill="black" r="1.0" /><circle cx="39.05266366746751" cy="74.68518551323373" fill="black" r="1.0" /><circle cx="0.0" cy="63.50468718890668" fill="black" r="1.0" /></svg>