<?xml version="1.0" encoding="utf-8" ?>
<svg baseProfile="full" height="100mm" version="1.1" viewBox="0 0 100 100" width="100mm" xmlns="http://www.w3.org/2000/svg" xmlns:ev="http://www.w3.org/2001/xml-events" xmlns:xlink="http://www.w3.org/1999/xlink"><defs /><path d="M 82.039 89.659 L 86.179 80.387 L 85.053 79.190 L 79.805 83.281 L 80.693 88.360 L 82.039 89.659 Z M 36.603 92.860 L 40.708 95.888 L 43.692 93.186 L 43.823 90.248 L 38.036 88.244 L 36.603 92.860 Z M 87.393 11.897 L 89.434 12.109 L 91.355 10.740 L 89.012 6.868 L 85.249 7.111 L 84.923 8.716 L 87.393 11.897 Z M 71.519 52.278 L 68.110 57.983 L 71.327 60.585 L 74.131 59.157 L 73.680 52.348 L 71.519 52.278 Z M 2.633 16.358 L 7.538 21.285 L 9.793 20.056 L 9.602 14.188 L 6.018 13.190 L 2.633 16.358 Z M 96.451 67.554 L 98.000 71.957 L 98.000 66.678 L 96.451 67.554 Z M 77.709 27.932 L 77.735 29.014 L 80.244 30.698 L 81.906 29.550 L 81.036 26.122 L 79.554 25.643 L 79.437 25.690 L 77.709 27.932 Z M 72.940 64.253 L 72.722 66.114 L 77.667 69.557 L 77.996 69.524 L 79.849 63.790 L 76.347 62.517 L 72.940 64.253 Z M 13.586 72.132 L 8.810 66.500 L 7.667 67.950 L 7.195 72.718 L 11.954 75.037 L 12.359 74.880 L 13.586 72.132 Z M 43.876 69.854 L 48.262 67.428 L 48.426 66.449 L 47.912 65.293 L 47.686 65.170 L 44.181 65.917 L 42.292 68.539 L 43.876 69.854 Z M 35.828 9.796 L 35.742 15.264 L 38.633 16.008 L 39.858 14.260 L 39.869 12.599 L 35.828 9.796 Z M 90.618 89.148 L 92.781 83.140 L 89.686 82.344 L 85.688 91.298 L 85.928 91.454 L 90.618 89.148 Z M 64.762 25.321 L 63.997 22.811 L 60.856 22.531 L 60.182 24.151 L 62.114 26.429 L 64.762 25.321 Z M 84.421 3.156 L 88.870 2.869 L 89.348 2.000 L 83.362 2.000 L 84.421 3.156 Z M 47.212 53.446 L 45.517 51.832 L 42.875 53.243 L 43.318 54.845 L 45.557 55.283 L 47.212 53.446 Z M 21.865 40.361 L 24.872 38.361 L 25.090 35.115 L 22.116 31.825 L 20.855 31.739 L 19.794 32.824 L 21.865 40.361 Z M 53.719 83.194 L 53.796 85.565 L 55.407 86.200 L 55.263 82.205 L 53.719 83.194 Z M 81.238 39.292 L 90.927 39.404 L 92.328 37.017 L 90.780 33.582 L 84.650 32.517 L 82.090 34.284 L 81.238 39.292 Z M 57.285 98.000 L 65.993 98.000 L 65.717 97.503 L 58.861 96.140 L 57.285 98.000 Z M 75.476 32.315 L 72.168 33.471 L 71.236 36.534 L 77.381 38.113 L 78.071 34.057 L 75.476 32.315 Z M 33.655 51.074 L 36.355 49.977 L 35.958 47.105 L 33.794 46.431 L 32.024 49.325 L 33.655 51.074 Z M 96.139 26.254 L 96.011 26.329 L 94.306 31.671 L 95.869 35.138 L 98.000 35.138 L 98.000 26.254 L 96.139 26.254 Z M 88.182 97.815 L 88.182 98.000 L 88.606 98.000 L 88.182 97.815 Z M 77.396 16.359 L 78.231 16.535 L 78.423 16.370 L 77.520 13.980 L 77.396 16.359 Z M 22.272 3.252 L 24.012 5.271 L 26.368 5.618 L 28.649 4.526 L 28.149 2.000 L 22.584 2.000 L 22.272 3.252 Z M 51.127 44.584 L 48.086 46.298 L 47.915 48.592 L 50.818 51.357 L 51.313 51.368 L 54.258 47.835 L 51.127 44.584 Z M 14.205 88.420 L 11.822 92.174 L 11.899 92.560 L 17.134 90.208 L 17.188 88.502 L 14.205 88.420 Z M 64.498 77.053 L 67.018 75.677 L 66.003 72.948 L 64.498 77.053 Z M 69.225 95.580 L 70.566 98.000 L 73.468 98.000 L 78.659 91.956 L 78.054 91.372 L 70.806 91.596 L 69.225 95.580 Z M 98.000 83.110 L 96.937 83.403 L 94.688 89.653 L 98.000 91.465 L 98.000 83.110 Z M 30.510 57.624 L 31.016 54.109 L 28.669 51.592 L 25.360 51.645 L 23.630 54.131 L 24.138 55.855 L 30.510 57.624 Z M 37.669 34.490 L 40.196 35.080 L 41.853 33.727 L 42.167 30.878 L 39.618 28.264 L 36.636 29.439 L 36.091 32.070 L 37.669 34.490 Z M 46.137 73.175 L 48.860 74.668 L 50.906 73.542 L 50.962 73.402 L 49.482 71.325 L 46.137 73.175 Z M 12.528 64.699 L 16.628 69.535 L 20.717 68.422 L 18.981 64.153 L 12.528 64.699 Z M 17.780 40.592 L 16.119 34.543 L 13.940 34.942 L 12.607 37.939 L 15.457 41.329 L 17.780 40.592 Z M 47.886 5.562 L 46.255 5.447 L 46.306 7.862 L 47.206 8.008 L 47.886 5.562 Z M 24.431 70.506 L 26.294 76.329 L 27.782 76.967 L 31.304 74.631 L 31.660 72.096 L 28.788 69.690 L 24.431 70.506 Z M 63.203 30.310 L 62.170 34.033 L 65.798 37.181 L 67.050 36.550 L 68.364 32.232 L 66.264 29.029 L 63.203 30.310 Z M 44.335 98.000 L 46.525 98.000 L 46.525 96.539 L 46.110 96.392 L 44.335 98.000 Z M 85.806 28.658 L 90.792 29.525 L 92.016 25.691 L 89.254 23.469 L 86.281 23.624 L 84.907 25.117 L 85.806 28.658 Z M 71.925 6.511 L 69.011 6.716 L 69.148 10.016 L 70.659 10.721 L 72.471 9.938 L 71.925 6.511 Z M 35.698 84.062 L 36.401 80.837 L 33.070 78.259 L 30.156 80.192 L 30.428 81.988 L 35.698 84.062 Z M 82.234 15.141 L 82.512 15.176 L 83.755 13.733 L 82.373 11.953 L 81.313 12.701 L 82.234 15.141 Z M 82.099 22.262 L 82.984 21.300 L 81.978 19.141 L 81.418 19.069 L 80.921 19.498 L 81.279 21.997 L 82.099 22.262 Z M 39.640 65.377 L 40.603 64.041 L 38.960 61.403 L 38.072 61.622 L 39.640 65.377 Z M 28.656 87.227 L 30.856 92.201 L 32.723 91.869 L 34.017 87.699 L 29.459 85.905 L 28.656 87.227 Z M 70.870 20.617 L 69.978 20.083 L 68.071 20.612 L 67.694 21.221 L 68.389 23.503 L 69.895 22.827 L 70.870 20.617 Z M 17.736 29.207 L 15.748 24.146 L 12.129 23.338 L 8.907 25.094 L 8.499 26.730 L 13.162 31.017 L 16.576 30.394 L 17.736 29.207 Z M 22.256 76.833 L 20.877 72.524 L 17.365 73.480 L 16.314 75.834 L 19.489 78.317 L 22.256 76.833 Z M 87.133 51.341 L 90.947 49.031 L 90.284 43.397 L 81.030 43.290 L 80.146 47.746 L 87.133 51.341 Z M 66.524 14.241 L 67.778 16.542 L 68.375 16.376 L 68.534 14.144 L 67.406 13.617 L 66.524 14.241 Z M 66.162 2.000 L 67.448 2.816 L 72.709 2.446 L 73.143 2.000 L 66.162 2.000 Z M 75.709 20.090 L 77.091 20.972 L 77.004 20.364 L 75.709 20.090 Z M 44.903 11.687 L 43.870 12.519 L 43.865 13.184 L 47.433 13.735 L 47.827 12.428 L 47.579 12.120 L 44.903 11.687 Z M 56.186 70.696 L 58.368 67.998 L 58.301 67.839 L 52.203 68.112 L 52.184 68.225 L 54.148 70.980 L 56.186 70.696 Z M 13.732 13.646 L 13.589 13.736 L 13.780 19.608 L 16.548 20.226 L 18.961 17.672 L 17.343 14.451 L 13.732 13.646 Z M 4.833 48.851 L 2.000 50.909 L 2.000 54.602 L 7.379 57.862 L 11.243 51.873 L 10.719 50.523 L 4.833 48.851 Z M 61.681 65.555 L 62.204 66.803 L 65.287 68.109 L 66.304 68.078 L 68.701 66.053 L 68.963 63.818 L 64.853 60.493 L 63.428 60.585 L 62.470 61.265 L 61.681 65.555 Z M 49.445 60.970 L 52.344 57.905 L 51.010 55.362 L 50.872 55.359 L 48.527 57.961 L 49.445 60.970 Z M 56.453 22.699 L 57.425 20.366 L 57.392 20.278 L 55.793 19.193 L 51.925 20.692 L 51.896 20.806 L 53.069 23.201 L 56.453 22.699 Z M 75.066 78.820 L 77.420 80.068 L 82.106 76.416 L 78.817 73.462 L 78.234 73.520 L 74.853 78.286 L 75.066 78.820 Z M 60.939 75.140 L 62.377 71.220 L 61.281 70.756 L 59.644 72.782 L 60.939 75.140 Z M 54.731 74.937 L 56.390 78.256 L 56.899 78.377 L 57.855 77.833 L 56.155 74.739 L 54.731 74.937 Z M 50.971 15.854 L 51.311 16.640 L 54.011 15.594 L 53.973 14.192 L 53.154 13.473 L 51.607 13.748 L 50.971 15.854 Z M 30.974 7.848 L 28.665 8.953 L 28.563 16.857 L 28.997 17.120 L 31.736 15.615 L 31.852 8.209 L 30.974 7.848 Z M 2.436 91.679 L 4.777 93.973 L 8.179 94.351 L 7.911 93.016 L 4.006 90.561 L 2.436 91.679 Z M 49.683 39.948 L 44.016 37.125 L 42.848 38.078 L 43.357 41.430 L 46.117 42.816 L 49.599 40.854 L 49.683 39.948 Z M 22.248 20.018 L 19.547 22.876 L 21.469 27.772 L 22.330 27.830 L 27.325 23.180 L 27.061 20.624 L 25.999 19.981 L 22.248 20.018 Z M 43.937 48.141 L 44.077 46.268 L 41.742 45.095 L 39.908 46.467 L 40.386 49.928 L 40.493 49.981 L 43.937 48.141 Z M 81.799 70.764 L 84.961 73.603 L 89.706 67.070 L 85.168 63.669 L 83.948 64.114 L 81.799 70.764 Z M 24.775 98.000 L 22.044 97.435 L 21.600 98.000 L 24.775 98.000 Z M 4.520 26.155 L 4.965 24.370 L 2.000 21.392 L 2.000 27.808 L 4.520 26.155 Z M 36.833 98.000 L 33.776 95.744 L 30.663 96.298 L 29.669 97.351 L 29.669 98.000 L 36.833 98.000 Z M 32.665 4.218 L 33.999 4.766 L 37.093 2.000 L 32.227 2.000 L 32.665 4.218 Z M 64.326 56.518 L 67.873 50.581 L 64.198 47.047 L 61.419 48.663 L 64.127 56.531 L 64.326 56.518 Z M 51.972 64.118 L 57.928 63.851 L 58.364 61.477 L 55.370 60.527 L 51.972 64.118 Z M 75.745 5.062 L 76.503 9.824 L 78.311 9.924 L 80.979 8.042 L 81.431 5.814 L 78.316 2.413 L 75.745 5.062 Z M 63.623 11.394 L 65.156 10.309 L 64.977 5.985 L 64.473 5.666 L 62.349 8.163 L 62.501 10.383 L 63.623 11.394 Z M 34.296 42.122 L 34.417 42.436 L 37.385 43.360 L 39.378 41.869 L 38.925 38.891 L 37.206 38.489 L 34.296 42.122 Z M 84.182 95.139 L 84.157 95.074 L 82.463 93.970 L 82.227 93.941 L 78.741 98.000 L 84.182 98.000 L 84.182 95.139 Z M 19.860 55.488 L 14.411 54.341 L 10.207 60.858 L 10.214 60.881 L 18.987 60.138 L 20.394 57.299 L 19.860 55.488 Z M 2.127 86.988 L 2.593 84.599 L 2.333 84.301 L 2.000 84.301 L 2.000 87.079 L 2.127 86.988 Z M 5.665 76.422 L 5.297 81.614 L 5.477 81.820 L 8.501 81.172 L 9.432 78.258 L 5.665 76.422 Z M 76.090 47.636 L 77.170 42.189 L 68.944 40.075 L 67.269 40.919 L 66.674 43.879 L 71.239 48.267 L 74.974 48.388 L 76.090 47.636 Z M 46.794 78.097 L 44.635 76.913 L 43.761 78.453 L 45.779 79.799 L 46.728 79.251 L 46.794 78.097 Z M 15.004 2.358 L 18.037 2.000 L 14.612 2.000 L 15.004 2.358 Z M 50.861 9.818 L 52.198 9.580 L 52.910 7.263 L 51.966 5.818 L 50.857 9.812 L 50.861 9.818 Z M 13.514 78.723 L 13.478 78.737 L 12.303 82.417 L 14.053 84.414 L 16.687 84.487 L 17.132 81.552 L 13.514 78.723 Z M 65.884 80.854 L 66.666 83.345 L 67.384 83.699 L 71.145 79.787 L 71.032 79.503 L 69.576 78.838 L 65.884 80.854 Z M 49.730 25.477 L 48.615 23.201 L 42.663 23.998 L 42.332 25.318 L 44.809 27.857 L 49.404 26.293 L 49.730 25.477 Z M 34.516 57.873 L 35.403 58.162 L 38.697 57.348 L 39.537 56.180 L 38.830 53.622 L 38.463 53.438 L 34.948 54.866 L 34.516 57.873 Z M 22.471 62.116 L 24.242 66.472 L 27.713 65.822 L 28.820 61.306 L 23.592 59.855 L 22.471 62.116 Z M 59.908 92.270 L 65.773 93.436 L 67.256 89.698 L 66.294 87.621 L 65.099 87.032 L 59.662 90.234 L 59.908 92.270 Z M 32.879 61.546 L 31.587 66.817 L 34.102 68.923 L 36.347 67.872 L 33.835 61.858 L 32.879 61.546 Z M 12.418 43.929 L 9.578 40.553 L 6.820 41.353 L 6.552 45.181 L 11.162 46.491 L 12.418 43.929 Z M 6.065 29.925 L 2.000 32.592 L 2.000 34.757 L 5.390 37.603 L 8.821 36.608 L 10.130 33.664 L 6.065 29.925 Z M 95.722 39.138 L 94.130 41.850 L 94.948 48.804 L 98.000 50.436 L 98.000 39.138 L 95.722 39.138 Z M 89.608 78.194 L 95.388 79.681 L 96.380 79.407 L 92.892 69.490 L 87.894 76.371 L 89.608 78.194 Z M 70.691 87.598 L 76.467 87.420 L 75.826 83.751 L 73.877 82.717 L 70.201 86.540 L 70.691 87.598 Z M 28.393 47.596 L 30.678 43.857 L 30.450 43.267 L 26.998 41.751 L 24.456 43.442 L 25.767 47.638 L 28.393 47.596 Z M 98.000 22.040 L 97.964 22.254 L 98.000 22.254 L 98.000 22.040 Z M 75.230 24.529 L 75.264 24.552 L 75.265 24.551 L 75.230 24.529 Z M 69.426 70.676 L 71.082 75.128 L 71.918 75.510 L 74.332 72.108 L 70.713 69.589 L 69.426 70.676 Z M 43.698 85.972 L 43.701 83.221 L 40.852 81.320 L 40.348 81.513 L 39.679 84.580 L 43.698 85.972 Z M 22.605 16.015 L 24.574 15.995 L 24.658 9.409 L 23.853 9.291 L 21.055 12.930 L 22.605 16.015 Z M 6.657 4.799 L 7.278 9.389 L 11.236 10.491 L 11.507 10.320 L 12.206 5.220 L 8.680 2.000 L 8.649 2.000 L 6.657 4.799 Z M 93.145 52.376 L 88.981 54.898 L 87.730 60.590 L 93.141 64.646 L 93.474 64.643 L 98.000 62.082 L 98.000 54.972 L 93.145 52.376 Z M 42.777 17.064 L 41.737 18.548 L 42.326 20.007 L 48.077 19.237 L 47.448 17.785 L 42.777 17.064 Z M 20.588 85.438 L 25.238 85.150 L 26.538 83.009 L 26.177 80.630 L 24.765 80.026 L 21.112 81.986 L 20.588 85.438 Z M 32.677 28.829 L 29.570 26.555 L 25.864 30.006 L 27.793 32.140 L 32.253 30.878 L 32.677 28.829 Z M 57.985 14.579 L 58.020 15.870 L 58.578 16.249 L 60.359 13.837 L 60.166 13.663 L 57.985 14.579 Z M 12.293 96.768 L 12.673 98.000 L 16.511 98.000 L 18.828 95.055 L 18.266 94.084 L 12.293 96.768 Z M 87.930 19.532 L 87.963 15.978 L 87.171 15.896 L 85.684 17.623 L 86.606 19.602 L 87.930 19.532 Z M 69.865 27.225 L 71.365 29.514 L 73.726 28.689 L 73.718 28.343 L 71.209 26.621 L 69.865 27.225 Z M 72.536 14.268 L 72.352 16.842 L 72.855 17.144 L 73.367 16.822 L 73.522 13.841 L 72.536 14.268 Z M 42.322 8.629 L 42.228 4.245 L 41.381 3.532 L 38.075 6.487 L 41.786 9.061 L 42.322 8.629 Z M 61.314 3.206 L 55.929 4.570 L 56.250 5.062 L 59.456 5.390 L 61.314 3.206 Z M 61.813 18.600 L 64.465 18.837 L 64.469 18.830 L 63.270 16.629 L 61.813 18.600 Z M 3.537 2.283 L 3.739 2.000 L 2.000 2.000 L 2.000 2.283 L 3.537 2.283 Z M 45.443 61.558 L 44.722 59.195 L 42.595 58.779 L 42.296 59.194 L 43.965 61.873 L 45.443 61.558 Z M 3.067 72.942 L 3.161 72.867 L 3.527 69.171 L 2.000 69.171 L 2.000 72.942 L 3.067 72.942 Z M 55.944 37.190 L 53.731 39.620 L 53.569 41.354 L 57.801 45.747 L 58.464 45.754 L 62.714 43.284 L 63.310 40.318 L 59.260 36.804 L 55.944 37.190 Z M 29.044 35.943 L 28.891 38.214 L 31.415 39.322 L 33.967 36.135 L 33.094 34.797 L 29.044 35.943 Z M 20.485 44.145 L 20.172 44.030 L 16.207 45.287 L 14.405 48.965 L 14.949 50.367 L 20.555 51.546 L 22.103 49.323 L 20.485 44.145 Z M 6.453 85.702 L 6.163 87.192 L 9.081 89.027 L 10.634 86.581 L 9.324 85.087 L 6.453 85.702 Z M 59.396 85.749 L 62.630 83.844 L 61.788 81.163 L 61.041 80.670 L 60.973 80.662 L 59.246 81.644 L 59.396 85.749 Z M 20.405 7.213 L 19.260 5.884 L 16.102 6.256 L 15.594 9.963 L 17.896 10.476 L 20.405 7.213 Z M 91.922 20.481 L 93.933 22.099 L 95.375 13.616 L 94.476 13.429 L 91.970 15.213 L 91.922 20.481 Z M 56.077 33.148 L 58.338 32.885 L 59.325 29.325 L 57.059 26.653 L 53.347 27.203 L 53.127 27.755 L 56.077 33.148 Z M 31.074 20.543 L 31.315 22.875 L 35.189 25.710 L 38.431 24.432 L 38.955 22.341 L 37.999 19.975 L 33.986 18.943 L 31.074 20.543 Z M 57.653 50.010 L 54.625 53.642 L 56.168 56.584 L 60.305 57.896 L 60.355 57.861 L 57.653 50.010 Z M 2.514 45.592 L 2.856 40.698 L 2.000 39.980 L 2.000 45.965 L 2.514 45.592 Z M 92.403 4.746 L 95.287 9.512 L 97.587 9.990 L 98.000 9.869 L 98.000 2.000 L 93.912 2.000 L 92.403 4.746 Z M 46.107 31.641 L 45.892 33.591 L 51.341 36.304 L 52.530 34.998 L 49.973 30.325 L 46.107 31.641 Z M 78.123 58.907 L 82.344 60.441 L 83.783 59.916 L 84.928 54.705 L 78.028 51.154 L 77.627 51.424 L 78.123 58.907 Z M 3.352 10.207 L 2.821 6.283 L 2.000 6.283 L 2.000 11.472 L 3.352 10.207 Z M 47.698 86.264 L 49.793 85.537 L 49.721 83.320 L 48.682 82.742 L 47.700 83.308 L 47.698 86.264 Z M 89.638 94.087 L 98.000 97.722 L 98.000 96.025 L 92.177 92.839 L 89.638 94.087 Z M 58.418 9.305 L 56.527 9.111 L 56.042 10.686 L 56.328 10.936 L 58.468 10.037 L 58.418 9.305 Z M 47.817 90.457 L 47.716 92.718 L 49.174 93.235 L 54.565 95.023 L 56.005 93.323 L 55.674 90.605 L 51.796 89.076 L 47.817 90.457 Z M 21.110 91.013 L 22.520 93.449 L 26.981 94.372 L 27.295 94.039 L 25.139 89.164 L 21.161 89.410 L 21.110 91.013 Z M 50.834 98.000 L 50.525 97.897 L 50.525 98.000 L 50.834 98.000 Z M 51.642 77.703 L 50.796 78.169 L 50.732 79.306 L 51.610 79.794 L 52.426 79.272 L 51.642 77.703 Z M 38.961 77.760 L 39.719 77.472 L 41.807 73.790 L 41.751 73.290 L 39.033 71.031 L 35.625 72.626 L 35.302 74.929 L 38.961 77.760 Z M 4.765 65.171 L 6.637 62.797 L 6.341 61.910 L 2.000 59.279 L 2.000 65.171 L 4.765 65.171 Z" fill="none" stroke="black" stroke-width="0.15" /></svg>